<?xml version="1.0" encoding="utf-8"?>
<!-- Generator: Adobe Illustrator 26.0.3, SVG Export Plug-In . SVG Version: 6.00 Build 0)  -->
<svg version="1.1" id="레이어_1" xmlns="http://www.w3.org/2000/svg" xmlns:xlink="http://www.w3.org/1999/xlink" x="0px"
	 y="0px" viewBox="0 0 177.7 40" style="enable-background:new 0 0 177.7 40;" xml:space="preserve">
<style type="text/css">
	.st0{fill:#935227;}
	.st1{fill:#FFC400;}
	.st2{fill:#88CC2F;}
	.st3{fill:#31B4DD;}
	.st4{fill:#F7552F;}
</style>
<g>
	<path class="st0" d="M16.9,8l4-2.1c0,0,0.3-0.2,0.1-0.5s-2.3-5.6-10.5-5.3S0,6.5,0,9.5v8.6c0,0-0.5,9.8,10.6,10.4
		c0,0,7.8,0.6,10.5-5.4c0,0,0.2-0.3-0.2-0.5l-4.3-2.2c0,0-0.3-0.2-0.5,0.2c-0.2,0.4-1.3,2.9-5,2.9s-5.6-2.7-5.6-5.2v-8.2
		c0,0,0-5.2,5.6-5.2c3.5,0,4.6,2.2,5,3C16.2,8,16.3,8.4,16.9,8z"/>
	<path class="st0" d="M34,0.1L34,0.1c-11,0-11.2,9.8-11.2,10.3c0,0,0,0,0,0v7.7c0,0-0.2,10.3,11.1,10.3h0c11,0,11.1-9.8,11.1-10.3
		c0,0,0,0,0,0v-7.7C45.1,10.4,45.2,0.1,34,0.1z M39.5,18.4c0,2.1-1.5,5.2-5.6,5.2c-4,0-5.6-3.1-5.6-5.2v-8.2c0-1.4,1-5.2,5.6-5.2
		c2.3,0,3.7,1,4.5,2.1c0.8,1.1,1.1,2.4,1.1,3.2V18.4z"/>
	<path class="st1" d="M111.5,0c0,0-3.4-0.1-8.3,1.7L102.5,2c-0.2,0.1-0.3,0.3-0.2,0.4l1.4,4c0,0,0.1,0.4,0.6,0.2
		c0.5-0.2,3.6-1.7,7.2-1.7c4.5,0,5.4,2.8,5.4,6.2c0,0-2.6-2.1-6.3-2.1c-5.2,0-10,3.4-10,9.8c0,4,2.3,9.8,10.1,9.8
		c0,0,3.6,0.2,6.5-2.2v1.3c0,0,0,0.3,0.3,0.3c0.3,0,4.3,0,4.3,0s0.3,0,0.3-0.3c0-0.3,0-17.4,0-17.4S122,0,111.5,0z M111.3,23.8
		c-2.7,0-5.2-1.9-5.2-5.1c0-2.3,1.5-5.1,5.2-5.1c4.5,0,5.6,3.3,5.6,4.9C116.9,20.9,115.5,23.8,111.3,23.8z"/>
	<path class="st2" d="M148.7,10.4v17.2c0,0.2-0.2,0.4-0.4,0.4h-4.9c-0.2,0-0.4-0.2-0.4-0.4V10.2c0-2.1-1.5-5.2-5.6-5.2
		c-4.1,0-5.6,3.1-5.6,5.2v17.4c0,0.2-0.2,0.4-0.4,0.4h-4.9c-0.2,0-0.4-0.2-0.4-0.4V0.9c0-0.2,0.2-0.4,0.4-0.4h4.5
		c0.2,0,0.3,0.2,0.3,0.4v1.9c2.8-3.1,7.5-2.8,7.5-2.8C144.6,0.1,148.7,4.2,148.7,10.4z"/>
	<path class="st3" d="M177.3,0.2c0,0-0.6,0-0.6,0c-1.1,0-3.5,0.4-5.3,2.4c0,0-2.6-2.6-8-2.6c-6.2,0-11.1,3.7-11.1,9.9
		c0,2.1,0.7,5.9,4.2,8.3c0,0-4,1.9-4,7v2.3c0,0.2,0.2,0.4,0.4,0.4H169c2,0,3.3,1.6,3.3,3.2c0,0,0.3,2.4-3,4.3c0,0-0.3,0.2-0.1,0.5
		c0.2,0.3,2.2,3.9,2.2,3.9s0.2,0.3,0.5,0.1c0,0,5.4-2.4,5.4-8.8c0-3-2-7.9-8.2-7.9h-11.1c0,0,0.4-3.3,4.5-3.3h1.4
		c6.4,0,10.8-4.3,10.8-9.6c0,0,0.1-2.6-0.9-4.7c0,0,1.5-1.1,3.6-0.9c0,0,0.4,0,0.4-0.4v-4C177.7,0.4,177.5,0.2,177.3,0.2z
		 M163.3,15.2c-2.8,0-5.3-1.9-5.3-5.1c0-2.3,1.6-5.1,5.3-5.1c4.6,0,5.7,3.3,5.7,4.9C169.1,12.3,167.7,15.2,163.3,15.2z"/>
	<path class="st0" d="M70.7,0.6h-4.9c-0.2,0-0.4,0.2-0.4,0.4l0,17.4c0,2.1-1.5,5.2-5.6,5.2c-4,0-5.6-3.1-5.6-5.2V0.9
		c0-0.2-0.2-0.4-0.3-0.4h-4.9c-0.2,0-0.3,0.2-0.3,0.4v17.2c0,6.2,4.1,10.3,9.6,10.3c0,0,4.7,0.3,7.5-2.8v1.9c0,0.2,0.2,0.4,0.4,0.4
		h4.5c0.2,0,0.3-0.2,0.3-0.4V0.9C71.1,0.7,70.9,0.6,70.7,0.6z"/>
	<path class="st4" d="M87.8,0.1c-3.5,0-5.7,1.3-7.2,2.8v-2c0-0.2-0.2-0.4-0.3-0.4h-4.5c-0.2,0-0.3,0.2-0.3,0.4V39
		c0,0.2,0.2,0.3,0.3,0.3h4.9c0.2,0,0.3-0.1,0.3-0.3c0,0,0.1-6.7,0-13c1.5,1.4,3.9,2.5,6.9,2.5c3,0,5.4-1.1,7.1-2.9
		c1.7-1.8,2.7-4.4,2.7-7.4v-7.7C97.6,4.9,94.3,0.1,87.8,0.1z M92,18.3c0,2.1-1.5,5.2-5.6,5.2c-4,0-5.6-3.1-5.6-5.2v-8.2
		c0-1.4,1-5.2,5.6-5.2c2.3,0,3.7,0.9,4.5,2.1c0.8,1.1,1.1,2.4,1.1,3.2V18.3z"/>
</g>
</svg>
