<svg width="122" height="24" viewBox="0 0 122 24" fill="none" xmlns="http://www.w3.org/2000/svg">
<rect width="122" height="24" rx="12" fill="black" fill-opacity="0.5"/>
<path d="M22 11C22 13.4965 19.2305 16.0965 18.3005 16.8995C18.2139 16.9646 18.1084 16.9999 18 16.9999C17.8916 16.9999 17.7861 16.9646 17.6995 16.8995C16.7695 16.0965 14 13.4965 14 11C14 9.93913 14.4214 8.92172 15.1716 8.17157C15.9217 7.42143 16.9391 7 18 7C19.0609 7 20.0783 7.42143 20.8284 8.17157C21.5786 8.92172 22 9.93913 22 11Z" stroke="white" stroke-linecap="round" stroke-linejoin="round"/>
<path d="M18 12.5C18.8284 12.5 19.5 11.8284 19.5 11C19.5 10.1716 18.8284 9.5 18 9.5C17.1716 9.5 16.5 10.1716 16.5 11C16.5 11.8284 17.1716 12.5 18 12.5Z" stroke="white" stroke-linecap="round" stroke-linejoin="round"/>
<path d="M30.7441 8.50977C31.4766 8.50488 32.1016 8.77832 32.5068 9.23242H34.7773V8.10938H35.5488V12.7676H34.7773V11.8301H32.4971C32.0918 12.2793 31.4717 12.5479 30.7441 12.543C29.4453 12.5479 28.4834 11.7129 28.4883 10.5215C28.4834 9.34473 29.4453 8.50488 30.7441 8.50977ZM29.2207 10.5215C29.2207 11.3223 29.8555 11.8984 30.7441 11.8984C31.6035 11.8984 32.248 11.3223 32.248 10.5215C32.248 9.73047 31.6035 9.1543 30.7441 9.16406C29.8555 9.1543 29.2207 9.73047 29.2207 10.5215ZM29.9531 16.6738V13.207H30.7246V14.3105H34.7773V13.207H35.5488V16.6738H29.9531ZM30.7246 16.0488H34.7773V14.9258H30.7246V16.0488ZM32.873 11.2051H34.7773V9.86719H32.8779C32.9512 10.0674 32.9902 10.2871 32.9902 10.5215C32.9902 10.7656 32.9463 10.9951 32.873 11.2051ZM44.1719 8.10938V16.791H43.4004V8.10938H44.1719ZM37.1016 14.5352C39.4502 13.4219 40.6514 11.7568 40.8223 9.68164H37.502V9.05664H41.6035C41.5938 11.5518 40.4316 13.7637 37.5215 15.1602L37.1016 14.5352ZM52.9121 13.7246V16.8105H52.1602V14.3594H46.9355V13.7246H52.9121ZM45.8809 12.748V8.77344H48.0781V9.4082H46.6328V12.1133C47.0625 12.1035 47.5801 12.0596 48.1562 11.9277L48.2441 12.5723C47.4336 12.748 46.7793 12.748 46.252 12.748H45.8809ZM48.5566 12.748V8.77344H50.9785V9.4082H49.3281V12.1133C50.0703 12.1084 50.6465 12.0791 51.3105 11.9277L51.3887 12.5527C50.583 12.7285 49.9385 12.748 48.9961 12.748H48.5566ZM50.5293 10.9805V10.3555H52.1602V8.10938H52.9121V13.3047H52.1602V10.9805H50.5293ZM57.9902 13.8711V16.791H57.2383V14.5059H55.0703V13.8711H57.9902ZM54.2793 13.0801V12.4551H57.8535V11.5176H55.334V8.28516H56.0957V9.29102H60.3926V8.28516H61.1543V11.5176H58.6152V12.4551H62.1895V13.0801H54.2793ZM56.0957 10.8926H60.3926V9.87695H56.0957V10.8926ZM58.4004 14.5059V13.8711H61.2617V16.791H60.5V14.5059H58.4004ZM70.0801 8.10938V16.8105H69.3086V8.10938H70.0801ZM63.2441 11.8105C63.249 9.96484 64.167 8.78809 65.4609 8.7832C66.75 8.78809 67.6826 9.96484 67.6777 11.8105C67.6826 13.6611 66.75 14.833 65.4609 14.8281C64.167 14.833 63.249 13.6611 63.2441 11.8105ZM63.9863 11.8105C63.9863 13.2217 64.5918 14.1494 65.4609 14.1445C66.335 14.1494 66.9355 13.2217 66.9355 11.8105C66.9355 10.3994 66.335 9.47168 65.4609 9.4668C64.5918 9.47168 63.9863 10.3994 63.9863 11.8105ZM81.2715 8.11914V13.334H80.5V12.1621H78.1953V11.5273H80.5V10.3555H78.2832C77.7119 11.752 76.374 12.7627 74.5137 13.3145L74.1914 12.709C76.2861 12.0889 77.5996 10.9121 77.751 9.4082H74.6309V8.76367H78.5859C78.5859 9.10547 78.5469 9.43262 78.4736 9.74023H80.5V8.11914H81.2715ZM75.5293 15.082C75.5244 14.0469 76.6523 13.4219 78.4297 13.4219C80.1875 13.4219 81.3203 14.0469 81.3203 15.082C81.3203 16.1221 80.1875 16.752 78.4297 16.752C76.6523 16.752 75.5244 16.1221 75.5293 15.082ZM76.2812 15.082C76.2861 15.7363 77.1211 16.1318 78.4297 16.127C79.7188 16.1318 80.5537 15.7363 80.5586 15.082C80.5537 14.4277 79.7188 14.0322 78.4297 14.0371C77.1211 14.0322 76.2861 14.4277 76.2812 15.082ZM89.8359 8.10938V16.791H89.0742V8.10938H89.8359ZM82.7656 14.418C84.4307 14.418 86.6035 14.4131 88.498 14.1738L88.5566 14.7402C86.5986 15.0625 84.499 15.082 82.8828 15.0723L82.7656 14.418ZM82.9512 9.91602V9.29102H85.2266V8.20703H86.0078V9.29102H88.2734V9.91602H82.9512ZM83.5469 12.0352C83.5371 11.0342 84.3867 10.3994 85.6172 10.3945C86.8525 10.3994 87.6973 11.0342 87.707 12.0352C87.6973 13.0117 86.8525 13.666 85.6172 13.6562C84.3867 13.666 83.5371 13.0117 83.5469 12.0352ZM84.2598 12.0352C84.2598 12.6455 84.8164 13.0557 85.6172 13.0605C86.418 13.0557 86.9697 12.6455 86.9746 12.0352C86.9697 11.4199 86.418 11 85.6172 11C84.8164 11 84.2598 11.4199 84.2598 12.0352ZM98.7812 8.10938V16.791H98.0488V12.2402H96.7695V16.3418H96.0664V8.30469H96.7695V11.6055H98.0488V8.10938H98.7812ZM91.6816 14.6426V9.17383H94.9336V9.80859H92.4434V13.9883C93.6396 13.9834 94.4648 13.9395 95.4316 13.7441L95.5 14.3887C94.4551 14.6035 93.5713 14.6377 92.2383 14.6426H91.6816ZM107.199 8.10938V13.1973H106.428V10.9316H104.67V10.2871H106.428V8.10938H107.199ZM100.041 12.5039C101.32 12.0498 102.248 10.8877 102.248 9.65234V9.31055H100.285V8.67578H104.963V9.31055H103.02V9.65234C103.02 10.7705 103.889 11.8545 105.158 12.3086L104.758 12.9141C103.781 12.5576 103.024 11.8301 102.648 10.9316C102.272 11.9375 101.472 12.7334 100.441 13.1094L100.041 12.5039ZM101.525 16.6738V13.627H107.199V16.6738H101.525ZM102.287 16.0488H106.447V14.2422H102.287V16.0488Z" fill="white"/>
</svg>
