<svg width="86" height="24" viewBox="0 0 86 24" fill="none" xmlns="http://www.w3.org/2000/svg">
<rect width="86" height="24" rx="12" fill="black" fill-opacity="0.5"/>
<path d="M22 11C22 13.4965 19.2305 16.0965 18.3005 16.8995C18.2139 16.9646 18.1084 16.9999 18 16.9999C17.8916 16.9999 17.7861 16.9646 17.6995 16.8995C16.7695 16.0965 14 13.4965 14 11C14 9.93913 14.4214 8.92172 15.1716 8.17157C15.9217 7.42143 16.9391 7 18 7C19.0609 7 20.0783 7.42143 20.8284 8.17157C21.5786 8.92172 22 9.93913 22 11Z" stroke="white" stroke-linecap="round" stroke-linejoin="round"/>
<path d="M18 12.5C18.8284 12.5 19.5 11.8284 19.5 11C19.5 10.1716 18.8284 9.5 18 9.5C17.1716 9.5 16.5 10.1716 16.5 11C16.5 11.8284 17.1716 12.5 18 12.5Z" stroke="white" stroke-linecap="round" stroke-linejoin="round"/>
<path d="M32.707 8.91992C32.7119 10.1455 34.3037 11.2002 35.8711 11.4199L35.5586 12.0449C34.2109 11.8203 32.873 11.0732 32.3164 10.0088C31.7598 11.083 30.4268 11.8203 29.0742 12.0449L28.7617 11.4199C30.3291 11.2002 31.916 10.165 31.916 8.91992V8.42188H32.707V8.91992ZM28.3516 13.6465V13.002H36.2617V13.6465H32.668V16.791H31.916V13.6465H28.3516ZM44.1523 8.11914V14.7109H43.3809V13.8125H41.584V13.2559H43.3809V8.11914H44.1523ZM36.9453 12.1426C38.5615 12.1328 40.7393 12.1182 42.5996 11.8887L42.6484 12.4453C41.877 12.5674 41.0615 12.6455 40.2656 12.6943V14.4082H39.4941V12.7334C38.6152 12.7676 37.7803 12.7676 37.0527 12.7676L36.9453 12.1426ZM37.6484 9.98438C37.6436 9.07129 38.5127 8.4707 39.7969 8.4707C41.0713 8.4707 41.9404 9.07129 41.9453 9.98438C41.9404 10.9121 41.0713 11.4883 39.7969 11.4883C38.5127 11.4883 37.6436 10.9121 37.6484 9.98438ZM38.1953 16.6055V14.0664H38.9668V15.9609H44.3672V16.6055H38.1953ZM38.3809 9.98438C38.3711 10.5508 38.9473 10.917 39.7969 10.9219C40.6221 10.917 41.208 10.5508 41.2129 9.98438C41.208 9.42773 40.6221 9.04688 39.7969 9.05664C38.9473 9.04688 38.3711 9.42773 38.3809 9.98438ZM48.0293 8.63672C48.7617 8.63184 49.3818 8.91016 49.7871 9.36914H52.0625V8.10938H52.834V13.2559H52.0625V12.0156H49.7871C49.3867 12.4746 48.7617 12.7529 48.0293 12.748C46.7305 12.7529 45.7686 11.9033 45.7734 10.6973C45.7686 9.48145 46.7305 8.63184 48.0293 8.63672ZM46.5059 10.6973C46.5059 11.5029 47.1406 12.0986 48.0293 12.0938C48.8887 12.0986 49.5332 11.5029 49.5332 10.6973C49.5332 9.87207 48.8887 9.2959 48.0293 9.30078C47.1406 9.2959 46.5059 9.87207 46.5059 10.6973ZM47.043 15.1113C47.0381 14.0664 48.1514 13.4609 49.9531 13.4609C51.75 13.4609 52.8633 14.0664 52.8633 15.1113C52.8633 16.166 51.75 16.7715 49.9531 16.7715C48.1514 16.7715 47.0381 16.166 47.043 15.1113ZM47.7949 15.1113C47.79 15.7656 48.6201 16.1611 49.9531 16.1562C51.2861 16.1611 52.1162 15.7656 52.1113 15.1113C52.1162 14.4521 51.2861 14.0615 49.9531 14.0566C48.6201 14.0615 47.79 14.4521 47.7949 15.1113ZM50.1533 9.99414C50.2314 10.209 50.2754 10.4434 50.2754 10.6973C50.2754 10.9414 50.2314 11.1709 50.1582 11.3809H52.0625V9.99414H50.1533ZM62.1895 12.7188V13.3438H54.2695V12.7188H57.8438V11.8594H55.3242V8.36328H61.2031V8.98828H56.0957V9.79883H60.9688V10.3848H56.0957V11.2441H61.252V11.8594H58.6055V12.7188H62.1895ZM55.2363 15.3848C55.2314 14.4814 56.3105 13.9883 58.2344 13.998C60.1387 13.9883 61.2129 14.4814 61.2227 15.3848C61.2129 16.2979 60.1387 16.7715 58.2344 16.7715C56.3105 16.7715 55.2314 16.2979 55.2363 15.3848ZM56.0078 15.3848C55.998 15.9121 56.7988 16.1855 58.2344 16.1758C59.6553 16.1855 60.4463 15.9121 60.4512 15.3848C60.4463 14.8672 59.6553 14.5791 58.2344 14.5742C56.7988 14.5791 55.998 14.8672 56.0078 15.3848ZM70.1191 8.10938V13.1973H69.3477V10.9316H67.5898V10.2871H69.3477V8.10938H70.1191ZM62.9609 12.5039C64.2402 12.0498 65.168 10.8877 65.168 9.65234V9.31055H63.2051V8.67578H67.8828V9.31055H65.9395V9.65234C65.9395 10.7705 66.8086 11.8545 68.0781 12.3086L67.6777 12.9141C66.7012 12.5576 65.9443 11.8301 65.5684 10.9316C65.1924 11.9375 64.3916 12.7334 63.3613 13.1094L62.9609 12.5039ZM64.4453 16.6738V13.627H70.1191V16.6738H64.4453ZM65.207 16.0488H69.3672V14.2422H65.207V16.0488Z" fill="white"/>
</svg>
