<svg width="86" height="24" viewBox="0 0 86 24" fill="none" xmlns="http://www.w3.org/2000/svg">
<rect width="86" height="24" rx="12" fill="black" fill-opacity="0.5"/>
<path d="M22 11C22 13.4965 19.2305 16.0965 18.3005 16.8995C18.2139 16.9646 18.1084 16.9999 18 16.9999C17.8916 16.9999 17.7861 16.9646 17.6995 16.8995C16.7695 16.0965 14 13.4965 14 11C14 9.93913 14.4214 8.92172 15.1716 8.17157C15.9217 7.42143 16.9391 7 18 7C19.0609 7 20.0783 7.42143 20.8284 8.17157C21.5786 8.92172 22 9.93913 22 11Z" stroke="white" stroke-linecap="round" stroke-linejoin="round"/>
<path d="M18 12.5C18.8284 12.5 19.5 11.8284 19.5 11C19.5 10.1716 18.8284 9.5 18 9.5C17.1716 9.5 16.5 10.1716 16.5 11C16.5 11.8284 17.1716 12.5 18 12.5Z" stroke="white" stroke-linecap="round" stroke-linejoin="round"/>
<path d="M31.2113 8.53453C31.6395 8.53223 32.0228 8.60589 32.3612 8.75552C32.6996 8.90285 32.9643 9.11119 33.1554 9.38052C33.3465 9.64986 33.442 9.95948 33.442 10.3094C33.442 10.657 33.3465 10.9655 33.1554 11.2348C32.9643 11.5041 32.6996 11.7136 32.3612 11.8633C32.0228 12.0129 31.6395 12.0866 31.2113 12.0843C30.7831 12.0866 30.3999 12.0129 30.0615 11.8633C29.7254 11.7136 29.4618 11.5041 29.2707 11.2348C29.082 10.9655 28.9876 10.657 28.9876 10.3094C28.9876 9.95948 29.082 9.64986 29.2707 9.38052C29.4618 9.11119 29.7254 8.90285 30.0615 8.75552C30.3999 8.60589 30.7831 8.53223 31.2113 8.53453ZM28.3315 12.8301C29.3881 12.8301 30.401 12.8094 31.3702 12.768C32.3416 12.7242 33.2578 12.639 34.1188 12.5124L34.174 13.0925C33.4351 13.2284 32.5925 13.3273 31.6464 13.3895V16.5249H30.8798V13.4309C30.2399 13.4586 29.425 13.4747 28.4351 13.4793L28.3315 12.8301ZM29.7334 10.3094C29.7311 10.5327 29.7933 10.7318 29.9199 10.9068C30.0465 11.0794 30.2215 11.2141 30.4448 11.3108C30.6703 11.4052 30.9259 11.4512 31.2113 11.4489C31.5014 11.4512 31.7592 11.4052 31.9848 11.3108C32.2127 11.2141 32.39 11.0794 32.5166 10.9068C32.6455 10.7318 32.7099 10.5327 32.7099 10.3094C32.7099 10.0861 32.6455 9.88697 32.5166 9.71202C32.39 9.53706 32.2127 9.40124 31.9848 9.30456C31.7569 9.20787 31.4991 9.16068 31.2113 9.16298C30.9259 9.16068 30.6703 9.20787 30.4448 9.30456C30.2215 9.40124 30.0465 9.53706 29.9199 9.71202C29.7933 9.88697 29.7311 10.0861 29.7334 10.3094ZM34.7611 8.12017H35.5138V16.8011H34.7611V8.12017ZM40.2959 12.0773H38.0307V14.0456C38.5394 14.041 39.024 14.0226 39.4844 13.9903C39.9448 13.9558 40.4317 13.8959 40.9451 13.8108L41.0072 14.4461C40.457 14.5382 39.9414 14.6004 39.4603 14.6326C38.9791 14.6648 38.4405 14.6832 37.8442 14.6878H37.2848V11.4558H39.5569V9.70166H37.271V9.0732H40.2959V12.0773ZM40.7862 12.5401H41.9464V11.0138H40.7862V10.3854H41.9464V8.28591H42.6785V16.3384H41.9464V13.1754H40.7862V12.5401ZM43.6799 8.11326H44.4119V16.7942H43.6799V8.11326ZM52.357 11.6906H53.8073V12.3329H52.357V16.7942H51.5973V8.11326H52.357V11.6906ZM45.589 9.50829H47.8197V8.21685H48.5863V9.50829H50.7548V10.1436H45.589V9.50829ZM46.0863 12.8577C46.084 12.4733 46.1737 12.1291 46.3556 11.8253C46.5375 11.5214 46.7907 11.2855 47.1153 11.1174C47.4399 10.9471 47.8059 10.8619 48.2133 10.8619C48.6185 10.8619 48.9822 10.9471 49.3045 11.1174C49.6268 11.2855 49.8788 11.5214 50.0607 11.8253C50.2449 12.1268 50.3381 12.471 50.3404 12.8577C50.3381 13.2445 50.2449 13.5886 50.0607 13.8902C49.8788 14.1918 49.6268 14.4266 49.3045 14.5946C48.9822 14.7627 48.6185 14.8467 48.2133 14.8467C47.8059 14.8467 47.4399 14.7627 47.1153 14.5946C46.7907 14.4266 46.5375 14.1918 46.3556 13.8902C46.1737 13.5863 46.084 13.2422 46.0863 12.8577ZM46.8183 12.8577C46.816 13.1156 46.8747 13.3469 46.9944 13.5518C47.1141 13.7567 47.2799 13.9167 47.4916 14.0318C47.7057 14.1446 47.9463 14.1998 48.2133 14.1975C48.4781 14.1998 48.7152 14.1446 48.9247 14.0318C49.1364 13.9167 49.3022 13.7567 49.4219 13.5518C49.5439 13.3469 49.6061 13.1156 49.6084 12.8577C49.6061 12.5999 49.5439 12.3686 49.4219 12.1637C49.3022 11.9565 49.1364 11.7953 48.9247 11.6802C48.7152 11.5628 48.4781 11.5041 48.2133 11.5041C47.9463 11.5041 47.7057 11.5628 47.4916 11.6802C47.2799 11.7953 47.1141 11.9565 46.9944 12.1637C46.8747 12.3686 46.816 12.5999 46.8183 12.8577ZM61.0686 10.1091H62.3808V10.7583H61.0686V13.0235H60.302V8.12017H61.0686V10.1091ZM54.7012 8.55525H55.4747V11.7113C56.1285 11.709 56.7765 11.6779 57.4188 11.6181C58.061 11.5582 58.7183 11.4604 59.3904 11.3246L59.4871 11.9669C58.7873 12.1073 58.1048 12.2074 57.4395 12.2673C56.7765 12.3248 56.0939 12.3536 55.3918 12.3536H54.7012V8.55525ZM55.5714 13.5H61.0686V16.6699H55.5714V13.5ZM60.3228 16.0483V14.1077H56.3172V16.0483H60.3228ZM70.1187 13.1961H69.3521V10.9309H67.591V10.2887H69.3521V8.11326H70.1187V13.1961ZM62.9571 12.5055C63.3829 12.3536 63.7628 12.1326 64.0966 11.8425C64.4327 11.5502 64.6951 11.2141 64.8838 10.8343C65.0726 10.4521 65.167 10.0585 65.167 9.65331V9.31492H63.2057V8.67265H67.8811V9.31492H65.9405V9.65331C65.9405 10.0216 66.0303 10.3819 66.2098 10.7341C66.3894 11.084 66.6414 11.3971 66.966 11.6733C67.2906 11.9473 67.6624 12.1579 68.0814 12.3052L67.6808 12.913C67.1951 12.738 66.7692 12.4779 66.4032 12.1326C66.0372 11.7873 65.7586 11.3879 65.5676 10.9344C65.3788 11.4362 65.0922 11.8771 64.7077 12.2569C64.3233 12.6344 63.8733 12.9176 63.3576 13.1064L62.9571 12.5055ZM64.4419 13.6243H70.1187V16.6768H64.4419V13.6243ZM69.3659 16.0483V14.239H65.2084V16.0483H69.3659Z" fill="white"/>
</svg>
