<svg width="66" height="24" viewBox="0 0 66 24" fill="none" xmlns="http://www.w3.org/2000/svg">
<rect width="66" height="24" rx="12" fill="black" fill-opacity="0.5"/>
<path d="M22 11C22 13.4965 19.2305 16.0965 18.3005 16.8995C18.2139 16.9646 18.1084 16.9999 18 16.9999C17.8916 16.9999 17.7861 16.9646 17.6995 16.8995C16.7695 16.0965 14 13.4965 14 11C14 9.93913 14.4214 8.92172 15.1716 8.17157C15.9217 7.42143 16.9391 7 18 7C19.0609 7 20.0783 7.42143 20.8284 8.17157C21.5786 8.92172 22 9.93913 22 11Z" stroke="white" stroke-linecap="round" stroke-linejoin="round"/>
<path d="M18 12.5C18.8284 12.5 19.5 11.8284 19.5 11C19.5 10.1716 18.8284 9.5 18 9.5C17.1716 9.5 16.5 10.1716 16.5 11C16.5 11.8284 17.1716 12.5 18 12.5Z" stroke="white" stroke-linecap="round" stroke-linejoin="round"/>
<path d="M30.7441 8.63672C31.4766 8.63184 32.0967 8.91016 32.502 9.36914H34.7773V8.10938H35.5488V13.2559H34.7773V12.0156H32.502C32.1016 12.4746 31.4766 12.7529 30.7441 12.748C29.4453 12.7529 28.4834 11.9033 28.4883 10.6973C28.4834 9.48145 29.4453 8.63184 30.7441 8.63672ZM29.2207 10.6973C29.2207 11.5029 29.8555 12.0986 30.7441 12.0938C31.6035 12.0986 32.248 11.5029 32.248 10.6973C32.248 9.87207 31.6035 9.2959 30.7441 9.30078C29.8555 9.2959 29.2207 9.87207 29.2207 10.6973ZM29.7578 15.1113C29.7529 14.0664 30.8662 13.4609 32.668 13.4609C34.4648 13.4609 35.5781 14.0664 35.5781 15.1113C35.5781 16.166 34.4648 16.7715 32.668 16.7715C30.8662 16.7715 29.7529 16.166 29.7578 15.1113ZM30.5098 15.1113C30.5049 15.7656 31.335 16.1611 32.668 16.1562C34.001 16.1611 34.8311 15.7656 34.8262 15.1113C34.8311 14.4521 34.001 14.0615 32.668 14.0566C31.335 14.0615 30.5049 14.4521 30.5098 15.1113ZM32.8682 9.99414C32.9463 10.209 32.9902 10.4434 32.9902 10.6973C32.9902 10.9414 32.9463 11.1709 32.873 11.3809H34.7773V9.99414H32.8682ZM44.9043 12.7188V13.3438H36.9844V12.7188H40.5586V11.8594H38.0391V8.36328H43.918V8.98828H38.8105V9.79883H43.6836V10.3848H38.8105V11.2441H43.9668V11.8594H41.3203V12.7188H44.9043ZM37.9512 15.3848C37.9463 14.4814 39.0254 13.9883 40.9492 13.998C42.8535 13.9883 43.9277 14.4814 43.9375 15.3848C43.9277 16.2979 42.8535 16.7715 40.9492 16.7715C39.0254 16.7715 37.9463 16.2979 37.9512 15.3848ZM38.7227 15.3848C38.7129 15.9121 39.5137 16.1855 40.9492 16.1758C42.3701 16.1855 43.1611 15.9121 43.166 15.3848C43.1611 14.8672 42.3701 14.5791 40.9492 14.5742C39.5137 14.5791 38.7129 14.8672 38.7227 15.3848ZM52.834 13.7051V16.791H52.0625V14.3203H46.9941V13.7051H52.834ZM45.7734 10.6777C45.7686 9.4668 46.7305 8.60254 48.0293 8.60742C48.7812 8.60254 49.4209 8.90039 49.8213 9.38867H52.0625V8.10938H52.834V13.2266H52.0625V11.9766H49.8262C49.4258 12.4697 48.7861 12.7627 48.0293 12.7578C46.7305 12.7676 45.7686 11.9131 45.7734 10.6777ZM46.5059 10.6777C46.5059 11.5225 47.1406 12.1133 48.0293 12.1133C48.8838 12.1133 49.5332 11.5225 49.5332 10.6777C49.5332 9.8623 48.8838 9.26172 48.0293 9.26172C47.1406 9.26172 46.5059 9.8623 46.5059 10.6777ZM50.1729 11.3418H52.0625V10.0234H50.168C50.2363 10.2285 50.2754 10.4434 50.2754 10.6777C50.2754 10.9121 50.2363 11.1367 50.1729 11.3418Z" fill="white"/>
</svg>
